<svg width="148" height="40" viewBox="0 0 148 40" fill="none" xmlns="http://www.w3.org/2000/svg">
<path d="M17.291 28V13.7227H27.9258V28H26.2852V15.1875H18.9512V28H17.291ZM29.9277 17.2969H31.666L34.0293 23.5078C34.166 23.8724 34.293 24.224 34.4102 24.5625C34.5273 24.8945 34.6315 25.2135 34.7227 25.5195C34.8138 25.8255 34.8854 26.1217 34.9375 26.4082H35.0059C35.097 26.0827 35.2272 25.6562 35.3965 25.1289C35.5658 24.5951 35.748 24.0514 35.9434 23.498L38.1797 17.2969H39.9277L35.2695 29.5723C35.0221 30.2298 34.7324 30.8027 34.4004 31.291C34.0749 31.7793 33.6777 32.1536 33.209 32.4141C32.7402 32.681 32.1738 32.8145 31.5098 32.8145C31.2038 32.8145 30.9336 32.7949 30.6992 32.7559C30.4648 32.7233 30.263 32.6842 30.0938 32.6387V31.3398C30.237 31.3724 30.4095 31.4017 30.6113 31.4277C30.8197 31.4538 31.0345 31.4668 31.2559 31.4668C31.6595 31.4668 32.0078 31.3887 32.3008 31.2324C32.6003 31.0827 32.8574 30.8613 33.0723 30.5684C33.2871 30.2754 33.4727 29.9271 33.6289 29.5234L34.2148 28.0195L29.9277 17.2969ZM43.2676 17.2969V21.7891H49.2344V17.2969H50.8555V28H49.2344V23.166H43.2676V28H41.6367V17.2969H43.2676ZM60.5332 17.2969H62.3203L57.7012 22.4629L62.6914 28H60.7871L55.9238 22.5703V28H54.293V17.2969H55.9238V22.4922L60.5332 17.2969ZM71.9199 18.6738H68.3945V28H66.793V18.6738H63.3164V17.2969H71.9199V18.6738ZM90.5332 17.2969V28H89.0684V21.0273C89.0684 20.7409 89.0749 20.4512 89.0879 20.1582C89.1074 19.8587 89.1302 19.5592 89.1562 19.2598H89.0977L85.543 28H84.166L80.6992 19.2598H80.6406C80.6602 19.5592 80.6732 19.8587 80.6797 20.1582C80.6927 20.4512 80.6992 20.7604 80.6992 21.0859V28H79.2246V17.2969H81.4023L84.8594 26.0469L88.3652 17.2969H90.5332ZM98.0234 17.1016C98.9349 17.1016 99.7161 17.3034 100.367 17.707C101.018 18.1107 101.516 18.6771 101.861 19.4062C102.206 20.1289 102.379 20.9753 102.379 21.9453V22.9512H94.9863C95.0059 24.2077 95.3184 25.1647 95.9238 25.8223C96.5293 26.4798 97.3822 26.8086 98.4824 26.8086C99.1595 26.8086 99.7585 26.7467 100.279 26.623C100.8 26.4993 101.34 26.3171 101.9 26.0762V27.502C101.36 27.7428 100.823 27.9186 100.289 28.0293C99.7617 28.14 99.1367 28.1953 98.4141 28.1953C97.3854 28.1953 96.487 27.987 95.7188 27.5703C94.957 27.1471 94.3646 26.5286 93.9414 25.7148C93.5182 24.901 93.3066 23.9049 93.3066 22.7266C93.3066 21.5742 93.4987 20.5781 93.8828 19.7383C94.2734 18.8919 94.8203 18.2409 95.5234 17.7852C96.2331 17.3294 97.0664 17.1016 98.0234 17.1016ZM98.0039 18.4297C97.138 18.4297 96.4479 18.7129 95.9336 19.2793C95.4193 19.8457 95.1133 20.6367 95.0156 21.6523H100.68C100.673 21.0143 100.572 20.4544 100.377 19.9727C100.188 19.4844 99.8984 19.1068 99.5078 18.8398C99.1172 18.5664 98.6159 18.4297 98.0039 18.4297ZM106.764 17.2969V21.7891H112.73V17.2969H114.352V28H112.73V23.166H106.764V28H105.133V17.2969H106.764ZM131.549 22.6289C131.549 23.7943 131.36 24.7936 130.982 25.627C130.611 26.4603 130.077 27.0983 129.381 27.541C128.684 27.9772 127.851 28.1953 126.881 28.1953C125.976 28.1953 125.185 28 124.508 27.6094C123.837 27.2188 123.307 26.6491 122.916 25.9004C122.532 25.1517 122.311 24.2402 122.252 23.166H119.41V28H117.789V17.2969H119.41V21.7891H122.271C122.363 20.7995 122.604 19.9564 122.994 19.2598C123.385 18.5632 123.912 18.0293 124.576 17.6582C125.24 17.2871 126.021 17.1016 126.92 17.1016C127.857 17.1016 128.671 17.3229 129.361 17.7656C130.058 18.2018 130.595 18.8333 130.973 19.6602C131.357 20.4805 131.549 21.4701 131.549 22.6289ZM123.912 22.6289C123.912 23.5273 124.013 24.2923 124.215 24.9238C124.423 25.5488 124.745 26.0273 125.182 26.3594C125.624 26.6849 126.197 26.8477 126.9 26.8477C127.597 26.8477 128.163 26.6849 128.6 26.3594C129.042 26.0339 129.365 25.5586 129.566 24.9336C129.775 24.3021 129.879 23.5339 129.879 22.6289C129.879 21.737 129.775 20.9818 129.566 20.3633C129.358 19.7448 129.036 19.276 128.6 18.957C128.163 18.6315 127.597 18.4688 126.9 18.4688C126.204 18.4688 125.634 18.6315 125.191 18.957C124.755 19.276 124.433 19.7448 124.225 20.3633C124.016 20.9818 123.912 21.737 123.912 22.6289Z" fill="#212121"/>
</svg>
